<?xml version="1.0" encoding="UTF-8"?>
<!-- Generator: Adobe Illustrator 24.3.0, SVG Export Plug-In . SVG Version: 6.00 Build 0)  -->
<svg version="1.1" id="Layer_1" xmlns="http://www.w3.org/2000/svg" xmlns:xlink="http://www.w3.org/1999/xlink" x="0px" y="0px" viewBox="0 0 512 512" style="enable-background:new 0 0 512 512;" xml:space="preserve">
<style type="text/css">
	.st0{fill:#0099FF;}
</style>
<g id="XMLID_1_">
	<path id="XMLID_11_" class="st0" d="M310.84,6.09c-48.1-10.52-96.06-6.73-139.39,8.41l205.59,142.2l-23-137.15   C340.29,13.94,325.85,9.32,310.84,6.09z M371.85,27.69l41.51,244.01l79.79-112.19C470.15,103.27,427.52,55.88,371.85,27.69z    M154.9,20.96C98.1,45.5,50.84,90.23,23.92,148.15l248.5-46.14L154.9,20.96z M498.62,174.51l-140.66,203.9l135.05-25.8   c5.47-13.32,9.82-27.35,13.04-41.79l1.12-5.61C516.01,260.06,512.36,215.32,498.62,174.51z M155.46,139.88L17.05,164.14   c-4.49,11.92-8.27,24.26-11.08,37.02c-10.66,48.52-6.73,96.76,8.83,140.38L155.46,139.88z M98.1,247.02L21.96,359.21   c24.26,54.83,67.45,100.55,123.13,127.33L98.1,247.02z M486.14,367.9l-242.19,46.98l111.35,76.99   C411.67,468.03,458.79,424.42,486.14,367.9z M137.09,360.61l23.42,132.8c13.04,5.19,26.5,9.4,40.67,12.48   c47.82,10.52,95.5,6.87,138.55-8.13L137.09,360.61z"/>
</g>
</svg>